<svg xmlns="http://www.w3.org/2000/svg" viewBox="0 0 800 1020" width="800" height="1020" id="planoSvg">
  <style>
    .lote{fill:#2A5625;fill-opacity:.22;stroke:#2A5625;stroke-width:1.8;stroke-linejoin:round;cursor:pointer;transition:fill-opacity .3s,stroke-width .3s}
    .lote:hover{fill-opacity:.38}
    .lote.active{fill:#C4953A;fill-opacity:.45;stroke:#C4953A;stroke-width:3}
    .lote.sold{fill:#A8957E;stroke:#A8957E;cursor:default}
    .lote.sold:hover{fill-opacity:.22}
    .serv{fill:#C6DDB4;fill-opacity:.35;stroke:#2A5625;stroke-width:.8;stroke-dasharray:3,2;cursor:default}
    .lot-label{font-family:Georgia,serif;font-size:13px;fill:#1E4019;font-weight:700;text-anchor:middle;dominant-baseline:middle;pointer-events:none;user-select:none}
    .lot-label.sold{fill:#8A705E}
    .lot-area{font-family:Arial,sans-serif;font-size:9px;fill:#596552;text-anchor:middle;dominant-baseline:middle;pointer-events:none}
  </style>
  <polygon class="serv" points="207.47,419.12 222.76,404.68 175.97,356.62 160.97,371.36" />
  <polygon class="serv" points="290.23,504.16 305.54,489.75 222.76,404.68 207.47,419.12" />
  <polygon class="serv" points="388.31,574.73 305.54,489.75 290.23,504.16 373.01,589.17" />
  <polygon class="serv" points="462.74,681.30 478.04,666.86 388.31,574.73 373.01,589.17" />
  <polygon class="serv" points="552.50,773.41 567.79,758.97 478.04,666.86 462.74,681.30" />
  <polygon class="serv" points="567.79,758.97 552.50,773.41 739.36,965.36 754.36,950.62" />
  <polygon class="lote" data-lot-kml="5-A" points="87.35,162.17 42.86,250.08 111.36,320.47 123.84,333.32 160.97,371.36 227.45,306.04 141.78,54.64" />
  <polygon class="lote" data-lot-kml="5-B" points="160.97,371.36 179.92,390.81 207.47,419.12 275.25,355.12 348.84,285.63 307.57,240.18 279.67,208.93 173.46,90.27 141.78,54.64 227.45,306.04" />
  <polygon class="lote" data-lot-kml="5-C" points="348.84,285.63 275.25,355.12 207.47,419.12 217.08,429.00 254.24,467.19 290.23,504.16 428.86,373.78" />
  <polygon class="lote" data-lot-kml="5-D" points="504.87,457.50 428.86,373.78 290.23,504.16 333.02,548.12 373.01,589.17 435.57,530.10 440.82,525.15 507.50,462.19" />
  <polygon class="lote" data-lot-kml="5-E" points="498.19,717.71 542.06,762.69 552.50,773.41 564.78,761.81 615.05,714.35 677.60,655.29 589.73,561.40 462.74,681.30" />
  <polygon class="lote" data-lot-kml="5-F" points="373.01,589.17 462.74,681.30 589.73,561.40 523.20,490.30 507.50,462.19 440.82,525.15 435.57,530.10" />
  <polygon class="lote" data-lot-kml="5-G" points="602.10,824.37 607.32,829.73 662.14,886.05 703.07,928.08 739.36,965.36 757.14,947.89 727.25,800.39 677.60,655.29 615.05,714.35 564.78,761.81 552.50,773.41" />
  <text class="lot-label" x="127.9" y="249.9">5-A</text>
  <text class="lot-area" x="127.9" y="264.9">6,487 m²</text>
  <text class="lot-label" x="230.2" y="265.2">5-B</text>
  <text class="lot-area" x="230.2" y="280.2">5,837 m²</text>
  <text class="lot-label" x="288.9" y="397.9">5-C</text>
  <text class="lot-area" x="288.9" y="412.9">5,167 m²</text>
  <text class="lot-label" x="414.2" y="491.8">5-D</text>
  <text class="lot-area" x="414.2" y="506.8">5,039 m²</text>
  <text class="lot-label" x="562.8" y="696.5">5-E</text>
  <text class="lot-area" x="562.8" y="711.5">5,041 m²</text>
  <text class="lot-label" x="476.1" y="541.5">5-F</text>
  <text class="lot-area" x="476.1" y="556.5">5,138 m²</text>
  <text class="lot-label" x="655.3" y="819.1">5-G</text>
  <text class="lot-area" x="655.3" y="834.1">6,291 m²</text>
  <g transform="translate(758,960)">
    <circle cx="0" cy="0" r="18" fill="rgba(255,255,255,.8)" stroke="#1E4019" stroke-width="1.2"/>
    <polygon points="0,-14 5,4 0,1 -5,4" fill="#1E4019"/>
    <text x="0" y="-17" text-anchor="middle" font-size="9" fill="#1E4019" font-weight="700" font-family="Arial">N</text>
  </g>
  <g transform="translate(20,996)">
    <line x1="0" y1="0" x2="105.1" y2="0" stroke="#1E4019" stroke-width="2"/>
    <line x1="0" y1="-4" x2="0" y2="4" stroke="#1E4019" stroke-width="1.5"/>
    <line x1="105.1" y1="-4" x2="105.1" y2="4" stroke="#1E4019" stroke-width="1.5"/>
    <text x="52.5" y="-7" text-anchor="middle" font-size="9" fill="#1E4019" font-family="Arial">50 m</text>
  </g>
</svg>